G75*
%MOIN*%
%OFA0B0*%
%FSLAX25Y25*%
%IPPOS*%
%LPD*%
%AMOC8*
5,1,8,0,0,1.08239X$1,22.5*
%
%ADD10C,0.06110*%
%ADD11C,0.06500*%
%ADD12OC8,0.05300*%
%ADD13C,0.07000*%
%ADD14C,0.05300*%
%ADD15OC8,0.06100*%
%ADD16C,0.06100*%
%ADD17OC8,0.07900*%
%ADD18C,0.05500*%
%ADD19C,0.17500*%
%ADD20R,0.07000X0.07000*%
%ADD21C,0.03200*%
%ADD22C,0.03869*%
D10*
X0366800Y0108995D02*
X0366800Y0114605D01*
X0376800Y0114605D02*
X0376800Y0108995D01*
X0386800Y0108995D02*
X0386800Y0114605D01*
X0396800Y0114605D02*
X0396800Y0108995D01*
X0406800Y0108995D02*
X0406800Y0114605D01*
X0416800Y0114605D02*
X0416800Y0108995D01*
X0426800Y0108995D02*
X0426800Y0114605D01*
X0436800Y0114605D02*
X0436800Y0108995D01*
X0436800Y0298995D02*
X0436800Y0304605D01*
X0446800Y0304605D02*
X0446800Y0298995D01*
X0456800Y0298995D02*
X0456800Y0304605D01*
X0466800Y0304605D02*
X0466800Y0298995D01*
X0476800Y0298995D02*
X0476800Y0304605D01*
X0486800Y0304605D02*
X0486800Y0298995D01*
X0496800Y0298995D02*
X0496800Y0304605D01*
X0506800Y0304605D02*
X0506800Y0298995D01*
X0420800Y0298995D02*
X0420800Y0304605D01*
X0410800Y0304605D02*
X0410800Y0298995D01*
X0400800Y0298995D02*
X0400800Y0304605D01*
X0390800Y0304605D02*
X0390800Y0298995D01*
X0380800Y0298995D02*
X0380800Y0304605D01*
X0370800Y0304605D02*
X0370800Y0298995D01*
X0360800Y0298995D02*
X0360800Y0304605D01*
X0350800Y0304605D02*
X0350800Y0298995D01*
X0340800Y0298995D02*
X0340800Y0304605D01*
X0330800Y0304605D02*
X0330800Y0298995D01*
D11*
X0331800Y0132800D02*
X0331800Y0126800D01*
X0341800Y0126800D02*
X0341800Y0132800D01*
X0351800Y0132800D02*
X0351800Y0126800D01*
X0351800Y0114800D02*
X0351800Y0108800D01*
X0341800Y0108800D02*
X0341800Y0114800D01*
X0331800Y0114800D02*
X0331800Y0108800D01*
X0321800Y0108800D02*
X0321800Y0114800D01*
X0311800Y0114800D02*
X0311800Y0108800D01*
X0301800Y0108800D02*
X0301800Y0114800D01*
X0301800Y0126800D02*
X0301800Y0132800D01*
X0311800Y0132800D02*
X0311800Y0126800D01*
X0321800Y0126800D02*
X0321800Y0132800D01*
X0456800Y0114800D02*
X0456800Y0108800D01*
X0466800Y0108800D02*
X0466800Y0114800D01*
X0476800Y0114800D02*
X0476800Y0108800D01*
X0486800Y0108800D02*
X0486800Y0114800D01*
X0496800Y0114800D02*
X0496800Y0108800D01*
X0506800Y0108800D02*
X0506800Y0114800D01*
D12*
X0486800Y0091800D03*
X0446800Y0091800D03*
X0426800Y0076800D03*
X0416800Y0076800D03*
X0406800Y0091800D03*
X0396800Y0091800D03*
X0356800Y0091800D03*
X0346800Y0091800D03*
X0326800Y0076800D03*
X0316800Y0076800D03*
X0306800Y0076800D03*
X0306800Y0091800D03*
X0261800Y0081800D03*
X0211800Y0066800D03*
X0201800Y0066800D03*
X0191800Y0066800D03*
X0181800Y0066800D03*
X0171800Y0066800D03*
X0171800Y0056800D03*
X0181800Y0056800D03*
X0191800Y0056800D03*
X0201800Y0056800D03*
X0211800Y0046800D03*
X0211800Y0036800D03*
X0201800Y0016800D03*
X0191800Y0016800D03*
X0181800Y0016800D03*
X0171800Y0016800D03*
X0251800Y0036800D03*
X0251800Y0046800D03*
X0306800Y0036800D03*
X0316800Y0036800D03*
X0326800Y0036800D03*
X0321800Y0021800D03*
X0321800Y0011800D03*
X0361800Y0011800D03*
X0371800Y0011800D03*
X0371800Y0021800D03*
X0361800Y0021800D03*
X0411800Y0021800D03*
X0411800Y0011800D03*
X0441800Y0021800D03*
X0426800Y0036800D03*
X0416800Y0036800D03*
X0481800Y0021800D03*
X0491800Y0021800D03*
X0531800Y0021800D03*
X0531800Y0036800D03*
X0531800Y0076800D03*
X0526800Y0091800D03*
X0426800Y0136800D03*
X0426800Y0146800D03*
X0426800Y0156800D03*
X0426800Y0166800D03*
X0436800Y0171800D03*
X0451800Y0171800D03*
X0451800Y0211800D03*
X0436800Y0211800D03*
X0416800Y0241800D03*
X0416800Y0251800D03*
X0401800Y0266800D03*
X0401800Y0276800D03*
X0361800Y0276800D03*
X0361800Y0266800D03*
X0376800Y0251800D03*
X0376800Y0241800D03*
X0376800Y0231800D03*
X0336800Y0231800D03*
X0336800Y0241800D03*
X0336800Y0251800D03*
X0316800Y0236800D03*
X0301800Y0256800D03*
X0301800Y0266800D03*
X0261800Y0266800D03*
X0261800Y0256800D03*
X0236800Y0251800D03*
X0226800Y0231800D03*
X0216800Y0231800D03*
X0206800Y0231800D03*
X0196800Y0231800D03*
X0196800Y0251800D03*
X0191800Y0271800D03*
X0201800Y0271800D03*
X0201800Y0311800D03*
X0191800Y0311800D03*
X0096800Y0311800D03*
X0086800Y0311800D03*
X0076800Y0311800D03*
X0076800Y0271800D03*
X0086800Y0271800D03*
X0096800Y0271800D03*
X0076800Y0251800D03*
X0066800Y0251800D03*
X0046800Y0241800D03*
X0036800Y0241800D03*
X0026800Y0241800D03*
X0066800Y0211800D03*
X0076800Y0211800D03*
X0046800Y0201800D03*
X0036800Y0201800D03*
X0026800Y0201800D03*
X0046800Y0186800D03*
X0046800Y0176800D03*
X0046800Y0166800D03*
X0086800Y0166800D03*
X0096800Y0166800D03*
X0096800Y0156800D03*
X0096800Y0176800D03*
X0086800Y0176800D03*
X0086800Y0186800D03*
X0136800Y0176800D03*
X0146800Y0176800D03*
X0147800Y0166800D03*
X0136800Y0166800D03*
X0136800Y0156800D03*
X0187800Y0166800D03*
X0186800Y0176800D03*
X0211800Y0166800D03*
X0211800Y0156800D03*
X0251800Y0156800D03*
X0261800Y0156800D03*
X0261800Y0146800D03*
X0261800Y0166800D03*
X0251800Y0166800D03*
X0226800Y0191800D03*
X0216800Y0191800D03*
X0206800Y0191800D03*
X0196800Y0191800D03*
X0301800Y0166800D03*
X0301800Y0156800D03*
X0301800Y0146800D03*
X0316800Y0146800D03*
X0336800Y0146800D03*
X0336800Y0156800D03*
X0336800Y0166800D03*
X0316800Y0186800D03*
X0316800Y0196800D03*
X0376800Y0166800D03*
X0386800Y0166800D03*
X0386800Y0156800D03*
X0376800Y0156800D03*
X0376800Y0146800D03*
X0386800Y0146800D03*
X0386800Y0136800D03*
X0261800Y0121800D03*
X0211800Y0106800D03*
X0201800Y0106800D03*
X0191800Y0106800D03*
X0181800Y0106800D03*
X0171800Y0106800D03*
X0071800Y0086800D03*
X0061800Y0086800D03*
X0051800Y0086800D03*
X0041800Y0086800D03*
X0031800Y0086800D03*
X0021800Y0076800D03*
X0041800Y0056800D03*
X0051800Y0056800D03*
X0061800Y0056800D03*
X0071800Y0056800D03*
X0061800Y0076800D03*
X0061800Y0126800D03*
X0071800Y0126800D03*
X0051800Y0126800D03*
X0041800Y0126800D03*
X0031800Y0126800D03*
X0041800Y0016800D03*
X0051800Y0016800D03*
X0061800Y0016800D03*
X0071800Y0016800D03*
X0456800Y0241800D03*
X0456800Y0251800D03*
X0466800Y0256800D03*
X0466800Y0266800D03*
X0466800Y0276800D03*
X0506800Y0276800D03*
X0506800Y0266800D03*
X0506800Y0256800D03*
D13*
X0021800Y0016957D03*
X0031800Y0016957D03*
X0031800Y0036643D03*
X0021800Y0036643D03*
X0011957Y0056800D03*
X0021957Y0066800D03*
X0031643Y0056800D03*
X0041643Y0066800D03*
X0051957Y0066800D03*
X0071643Y0066800D03*
X0106800Y0081800D03*
X0146800Y0081800D03*
X0191957Y0116800D03*
X0176800Y0126800D03*
X0211643Y0116800D03*
X0236800Y0086800D03*
X0276800Y0061800D03*
X0251643Y0056800D03*
X0231957Y0056800D03*
X0231957Y0026800D03*
X0251643Y0026800D03*
X0276800Y0021800D03*
X0436800Y0046957D03*
X0436800Y0066643D03*
X0456957Y0096800D03*
X0476643Y0096800D03*
X0441800Y0146800D03*
X0426800Y0181957D03*
X0416800Y0181957D03*
X0416800Y0201643D03*
X0426800Y0201643D03*
X0416800Y0221800D03*
X0401800Y0231957D03*
X0391800Y0231957D03*
X0391800Y0251643D03*
X0401800Y0251643D03*
X0321800Y0266800D03*
X0281800Y0281957D03*
X0266800Y0281957D03*
X0266800Y0301643D03*
X0281800Y0301643D03*
X0306800Y0296800D03*
X0216643Y0261800D03*
X0196957Y0261800D03*
X0196957Y0241800D03*
X0216643Y0241800D03*
X0236800Y0241643D03*
X0236800Y0221957D03*
X0236800Y0211643D03*
X0236800Y0191957D03*
X0226957Y0176800D03*
X0216643Y0176800D03*
X0196957Y0176800D03*
X0176643Y0151800D03*
X0156957Y0151800D03*
X0246643Y0176800D03*
X0161800Y0276800D03*
X0131800Y0276800D03*
X0106800Y0291957D03*
X0131800Y0306800D03*
X0106800Y0311643D03*
X0161800Y0306800D03*
X0056800Y0241643D03*
X0056800Y0221957D03*
X0031800Y0261800D03*
X0036957Y0136800D03*
X0056643Y0136800D03*
X0021800Y0116643D03*
X0011800Y0116643D03*
X0011800Y0096957D03*
X0021800Y0096957D03*
X0451957Y0011800D03*
X0471643Y0011800D03*
D14*
X0466800Y0039400D02*
X0466800Y0044200D01*
X0476800Y0044200D02*
X0476800Y0039400D01*
X0486800Y0039400D02*
X0486800Y0044200D01*
X0496800Y0044200D02*
X0496800Y0039400D01*
X0506800Y0039400D02*
X0506800Y0044200D01*
X0516800Y0044200D02*
X0516800Y0039400D01*
X0516800Y0069400D02*
X0516800Y0074200D01*
X0506800Y0074200D02*
X0506800Y0069400D01*
X0496800Y0069400D02*
X0496800Y0074200D01*
X0486800Y0074200D02*
X0486800Y0069400D01*
X0476800Y0069400D02*
X0476800Y0074200D01*
X0466800Y0074200D02*
X0466800Y0069400D01*
X0456800Y0069400D02*
X0456800Y0074200D01*
X0456800Y0044200D02*
X0456800Y0039400D01*
X0401800Y0039400D02*
X0401800Y0044200D01*
X0391800Y0044200D02*
X0391800Y0039400D01*
X0381800Y0039400D02*
X0381800Y0044200D01*
X0371800Y0044200D02*
X0371800Y0039400D01*
X0361800Y0039400D02*
X0361800Y0044200D01*
X0351800Y0044200D02*
X0351800Y0039400D01*
X0341800Y0039400D02*
X0341800Y0044200D01*
X0341800Y0069400D02*
X0341800Y0074200D01*
X0351800Y0074200D02*
X0351800Y0069400D01*
X0361800Y0069400D02*
X0361800Y0074200D01*
X0371800Y0074200D02*
X0371800Y0069400D01*
X0381800Y0069400D02*
X0381800Y0074200D01*
X0391800Y0074200D02*
X0391800Y0069400D01*
X0401800Y0069400D02*
X0401800Y0074200D01*
X0466800Y0144400D02*
X0466800Y0149200D01*
X0466800Y0184400D02*
X0466800Y0189200D01*
X0466800Y0199400D02*
X0466800Y0204200D01*
X0466800Y0239400D02*
X0466800Y0244200D01*
X0459200Y0266800D02*
X0454400Y0266800D01*
X0454400Y0276800D02*
X0459200Y0276800D01*
X0419200Y0276800D02*
X0414400Y0276800D01*
X0414400Y0266800D02*
X0419200Y0266800D01*
X0396800Y0214200D02*
X0396800Y0209400D01*
X0386800Y0209400D02*
X0386800Y0214200D01*
X0376800Y0214200D02*
X0376800Y0209400D01*
X0366800Y0209400D02*
X0366800Y0214200D01*
X0356800Y0214200D02*
X0356800Y0209400D01*
X0346800Y0209400D02*
X0346800Y0214200D01*
X0336800Y0214200D02*
X0336800Y0209400D01*
X0299200Y0211800D02*
X0294400Y0211800D01*
X0294400Y0201800D02*
X0299200Y0201800D01*
X0299200Y0191800D02*
X0294400Y0191800D01*
X0294400Y0181800D02*
X0299200Y0181800D01*
X0269200Y0181800D02*
X0264400Y0181800D01*
X0264400Y0191800D02*
X0269200Y0191800D01*
X0269200Y0201800D02*
X0264400Y0201800D01*
X0264400Y0211800D02*
X0269200Y0211800D01*
X0269200Y0221800D02*
X0264400Y0221800D01*
X0264400Y0231800D02*
X0269200Y0231800D01*
X0269200Y0241800D02*
X0264400Y0241800D01*
X0294400Y0241800D02*
X0299200Y0241800D01*
X0299200Y0231800D02*
X0294400Y0231800D01*
X0294400Y0221800D02*
X0299200Y0221800D01*
X0336800Y0184200D02*
X0336800Y0179400D01*
X0346800Y0179400D02*
X0346800Y0184200D01*
X0356800Y0184200D02*
X0356800Y0179400D01*
X0366800Y0179400D02*
X0366800Y0184200D01*
X0376800Y0184200D02*
X0376800Y0179400D01*
X0386800Y0179400D02*
X0386800Y0184200D01*
X0396800Y0184200D02*
X0396800Y0179400D01*
X0199200Y0156800D02*
X0194400Y0156800D01*
X0194400Y0146800D02*
X0199200Y0146800D01*
X0199200Y0136800D02*
X0194400Y0136800D01*
X0151800Y0139200D02*
X0151800Y0134400D01*
X0141800Y0134400D02*
X0141800Y0139200D01*
X0131800Y0139200D02*
X0131800Y0134400D01*
X0121800Y0134400D02*
X0121800Y0139200D01*
X0111800Y0139200D02*
X0111800Y0134400D01*
X0101800Y0134400D02*
X0101800Y0139200D01*
X0091800Y0139200D02*
X0091800Y0134400D01*
X0091800Y0109200D02*
X0091800Y0104400D01*
X0101800Y0104400D02*
X0101800Y0109200D01*
X0111800Y0109200D02*
X0111800Y0104400D01*
X0121800Y0104400D02*
X0121800Y0109200D01*
X0131800Y0109200D02*
X0131800Y0104400D01*
X0141800Y0104400D02*
X0141800Y0109200D01*
X0151800Y0109200D02*
X0151800Y0104400D01*
X0151800Y0059200D02*
X0151800Y0054400D01*
X0141800Y0054400D02*
X0141800Y0059200D01*
X0131800Y0059200D02*
X0131800Y0054400D01*
X0121800Y0054400D02*
X0121800Y0059200D01*
X0111800Y0059200D02*
X0111800Y0054400D01*
X0101800Y0054400D02*
X0101800Y0059200D01*
X0091800Y0059200D02*
X0091800Y0054400D01*
X0091800Y0029200D02*
X0091800Y0024400D01*
X0101800Y0024400D02*
X0101800Y0029200D01*
X0111800Y0029200D02*
X0111800Y0024400D01*
X0121800Y0024400D02*
X0121800Y0029200D01*
X0131800Y0029200D02*
X0131800Y0024400D01*
X0141800Y0024400D02*
X0141800Y0029200D01*
X0151800Y0029200D02*
X0151800Y0024400D01*
X0036800Y0169400D02*
X0036800Y0174200D01*
X0026800Y0174200D02*
X0026800Y0169400D01*
X0016800Y0169400D02*
X0016800Y0174200D01*
X0094400Y0191800D02*
X0099200Y0191800D01*
X0099200Y0201800D02*
X0094400Y0201800D01*
X0094400Y0211800D02*
X0099200Y0211800D01*
X0099200Y0221800D02*
X0094400Y0221800D01*
X0094400Y0231800D02*
X0099200Y0231800D01*
X0099200Y0241800D02*
X0094400Y0241800D01*
X0094400Y0251800D02*
X0099200Y0251800D01*
X0124400Y0251800D02*
X0129200Y0251800D01*
X0129200Y0241800D02*
X0124400Y0241800D01*
X0124400Y0231800D02*
X0129200Y0231800D01*
X0129200Y0221800D02*
X0124400Y0221800D01*
X0124400Y0211800D02*
X0129200Y0211800D01*
X0129200Y0201800D02*
X0124400Y0201800D01*
X0124400Y0191800D02*
X0129200Y0191800D01*
X0144400Y0191800D02*
X0149200Y0191800D01*
X0149200Y0201800D02*
X0144400Y0201800D01*
X0144400Y0211800D02*
X0149200Y0211800D01*
X0149200Y0221800D02*
X0144400Y0221800D01*
X0144400Y0231800D02*
X0149200Y0231800D01*
X0149200Y0241800D02*
X0144400Y0241800D01*
X0144400Y0251800D02*
X0149200Y0251800D01*
X0174400Y0251800D02*
X0179200Y0251800D01*
X0179200Y0241800D02*
X0174400Y0241800D01*
X0174400Y0231800D02*
X0179200Y0231800D01*
X0179200Y0221800D02*
X0174400Y0221800D01*
X0174400Y0211800D02*
X0179200Y0211800D01*
X0179200Y0201800D02*
X0174400Y0201800D01*
X0174400Y0191800D02*
X0179200Y0191800D01*
D15*
X0299800Y0022800D03*
D16*
X0307800Y0022800D03*
D17*
X0286800Y0081800D03*
X0276800Y0081800D03*
X0276800Y0091800D03*
X0286800Y0091800D03*
X0286800Y0101800D03*
X0276800Y0101800D03*
X0276800Y0111800D03*
X0286800Y0111800D03*
X0286800Y0121800D03*
X0276800Y0121800D03*
X0276800Y0131800D03*
X0286800Y0131800D03*
D18*
X0251800Y0276800D03*
X0241800Y0276800D03*
X0231800Y0276800D03*
X0221800Y0276800D03*
X0221800Y0306800D03*
X0231800Y0306800D03*
X0241800Y0306800D03*
X0251800Y0306800D03*
X0056800Y0311800D03*
X0046800Y0311800D03*
X0036800Y0311800D03*
X0026800Y0311800D03*
X0026800Y0281800D03*
X0036800Y0281800D03*
X0046800Y0281800D03*
X0056800Y0281800D03*
D19*
X0502863Y0216800D03*
X0526485Y0216800D03*
X0514674Y0235304D03*
X0514674Y0185304D03*
X0502863Y0166800D03*
X0526485Y0166800D03*
D20*
X0451800Y0146800D03*
X0426800Y0221800D03*
X0331800Y0266800D03*
X0306800Y0286800D03*
X0171800Y0276800D03*
X0141800Y0276800D03*
X0141800Y0306800D03*
X0171800Y0306800D03*
X0041800Y0261800D03*
X0176800Y0136800D03*
X0226800Y0086800D03*
X0276800Y0051800D03*
X0276800Y0031800D03*
X0136800Y0081800D03*
X0096800Y0081800D03*
D21*
X0051800Y0106800D03*
X0037700Y0143300D03*
X0076800Y0151800D03*
X0125900Y0144000D03*
X0131800Y0121800D03*
X0121000Y0118800D03*
X0186800Y0156800D03*
X0216800Y0146800D03*
X0201800Y0181800D03*
X0206800Y0196800D03*
X0226800Y0211800D03*
X0231800Y0201800D03*
X0236800Y0201800D03*
X0231800Y0196800D03*
X0246800Y0221800D03*
X0256800Y0231800D03*
X0256800Y0236800D03*
X0246800Y0241800D03*
X0251800Y0246800D03*
X0281800Y0241800D03*
X0286800Y0246800D03*
X0306800Y0231800D03*
X0286800Y0211800D03*
X0276800Y0211800D03*
X0306800Y0196800D03*
X0286800Y0191800D03*
X0281800Y0156800D03*
X0286800Y0146800D03*
X0171800Y0181800D03*
X0161800Y0191800D03*
X0161800Y0196800D03*
X0156800Y0201800D03*
X0141800Y0216800D03*
X0156800Y0221800D03*
X0161800Y0226800D03*
X0166800Y0221800D03*
X0116800Y0251800D03*
X0106800Y0241800D03*
X0086800Y0226800D03*
X0081800Y0226800D03*
X0076800Y0201800D03*
X0096800Y0196800D03*
X0081800Y0181800D03*
X0119600Y0187400D03*
X0127300Y0187400D03*
X0026800Y0226800D03*
X0081800Y0256800D03*
X0126800Y0261800D03*
X0156800Y0256800D03*
X0191800Y0281800D03*
X0221800Y0286800D03*
X0201800Y0301800D03*
X0191800Y0306800D03*
X0141800Y0291800D03*
X0116800Y0286800D03*
X0413600Y0134200D03*
X0488500Y0146800D03*
X0156800Y0066800D03*
D22*
X0146800Y0046800D03*
X0166800Y0041800D03*
X0201800Y0041800D03*
X0201800Y0031800D03*
X0216800Y0016800D03*
X0106800Y0071800D03*
X0091800Y0066800D03*
X0076800Y0071800D03*
X0061800Y0051800D03*
X0076800Y0046800D03*
X0061800Y0039300D03*
X0136800Y0096800D03*
X0171800Y0091800D03*
X0141800Y0121800D03*
X0131800Y0166800D03*
X0116800Y0171800D03*
X0106800Y0176800D03*
X0111800Y0191800D03*
X0086800Y0196800D03*
X0046800Y0161800D03*
X0026800Y0161800D03*
X0021800Y0181800D03*
X0011800Y0196800D03*
X0106800Y0236800D03*
X0116800Y0241800D03*
X0136800Y0246800D03*
X0111800Y0296800D03*
X0381800Y0266800D03*
X0406800Y0271800D03*
X0386800Y0246800D03*
X0361800Y0081800D03*
X0061800Y0106800D03*
M02*
