%
M48
M72
T01C0.01300
T02C0.01969
T03C0.02756
T04C0.03200
T05C0.03740
T06C0.04000
T07C0.11800
%
T01
X156800Y66800
X121000Y118800
X131800Y121800
X125900Y144000
X76800Y151800
X37700Y143300
X51800Y106800
X81800Y181800
X96800Y196800
X76800Y201800
X81800Y226800
X86800Y226800
X106800Y241800
X116800Y251800
X126800Y261800
X156800Y256800
X191800Y281800
X221800Y286800
X201800Y301800
X191800Y306800
X141800Y291800
X116800Y286800
X81800Y256800
X26800Y226800
X119600Y187400
X127300Y187400
X156800Y201800
X161800Y196800
X161800Y191800
X171800Y181800
X201800Y181800
X206800Y196800
X226800Y211800
X231800Y201800
X236800Y201800
X231800Y196800
X246800Y221800
X256800Y231800
X256800Y236800
X246800Y241800
X251800Y246800
X281800Y241800
X286800Y246800
X306800Y231800
X286800Y211800
X276800Y211800
X306800Y196800
X286800Y191800
X281800Y156800
X286800Y146800
X216800Y146800
X186800Y156800
X141800Y216800
X156800Y221800
X161800Y226800
X166800Y221800
X413600Y134200
X488500Y146800
T02
X361800Y81800
X216800Y16800
X201800Y31800
X201800Y41800
X166800Y41800
X146800Y46800
X106800Y71800
X91800Y66800
X76800Y71800
X61800Y51800
X76800Y46800
X61800Y39300
X136800Y96800
X171800Y91800
X141800Y121800
X131800Y166800
X116800Y171800
X106800Y176800
X111800Y191800
X86800Y196800
X46800Y161800
X26800Y161800
X21800Y181800
X11800Y196800
X106800Y236800
X116800Y241800
X136800Y246800
X111800Y296800
X381800Y266800
X406800Y271800
X386800Y246800
X61800Y106800
T03
X21800Y16957
X31800Y16957
X31800Y36643
X21800Y36643
X11957Y56800
X21957Y66800
X31643Y56800
X41643Y66800
X51957Y66800
X71643Y66800
X96800Y81800
X106800Y81800
X136800Y81800
X146800Y81800
X191957Y116800
X176800Y126800
X176800Y136800
X176643Y151800
X156957Y151800
X196957Y176800
X216643Y176800
X226957Y176800
X246643Y176800
X236800Y191957
X236800Y211643
X236800Y221957
X236800Y241643
X216643Y241800
X196957Y241800
X196957Y261800
X216643Y261800
X171800Y276800
X161800Y276800
X141800Y276800
X131800Y276800
X106800Y291957
X131800Y306800
X141800Y306800
X161800Y306800
X171800Y306800
X106800Y311643
X41800Y261800
X31800Y261800
X56800Y241643
X56800Y221957
X56643Y136800
X36957Y136800
X21800Y116643
X11800Y116643
X11800Y96957
X21800Y96957
X211643Y116800
X226800Y86800
X236800Y86800
X276800Y61800
X276800Y51800
X251643Y56800
X231957Y56800
X276800Y31800
X276800Y21800
X251643Y26800
X231957Y26800
X436800Y46957
X436800Y66643
X456957Y96800
X476643Y96800
X451800Y146800
X441800Y146800
X426800Y181957
X416800Y181957
X416800Y201643
X426800Y201643
X426800Y221800
X416800Y221800
X401800Y231957
X391800Y231957
X391800Y251643
X401800Y251643
X331800Y266800
X321800Y266800
X306800Y286800
X306800Y296800
X281800Y301643
X266800Y301643
X266800Y281957
X281800Y281957
X451957Y11800
X471643Y11800
T04
X481800Y21800
X491800Y21800
X486800Y41800
X476800Y41800
X466800Y41800
X456800Y41800
X441800Y21800
X426800Y36800
X416800Y36800
X401800Y41800
X391800Y41800
X381800Y41800
X371800Y41800
X361800Y41800
X351800Y41800
X341800Y41800
X326800Y36800
X316800Y36800
X306800Y36800
X307800Y22800
X299800Y22800
X321800Y21800
X321800Y11800
X361800Y11800
X371800Y11800
X371800Y21800
X361800Y21800
X411800Y21800
X411800Y11800
X496800Y41800
X506800Y41800
X516800Y41800
X531800Y36800
X531800Y21800
X516800Y71800
X506800Y71800
X496800Y71800
X486800Y71800
X476800Y71800
X466800Y71800
X456800Y71800
X446800Y91800
X426800Y76800
X416800Y76800
X401800Y71800
X391800Y71800
X381800Y71800
X371800Y71800
X361800Y71800
X351800Y71800
X341800Y71800
X326800Y76800
X316800Y76800
X306800Y76800
X306800Y91800
X346800Y91800
X356800Y91800
X396800Y91800
X406800Y91800
X386800Y136800
X386800Y146800
X376800Y146800
X376800Y156800
X386800Y156800
X386800Y166800
X376800Y166800
X376800Y181800
X386800Y181800
X396800Y181800
X366800Y181800
X356800Y181800
X346800Y181800
X336800Y181800
X316800Y186800
X316800Y196800
X296800Y191800
X296800Y181800
X301800Y166800
X301800Y156800
X301800Y146800
X316800Y146800
X336800Y146800
X336800Y156800
X336800Y166800
X296800Y201800
X296800Y211800
X296800Y221800
X296800Y231800
X296800Y241800
X316800Y236800
X336800Y231800
X336800Y241800
X336800Y251800
X361800Y266800
X361800Y276800
X401800Y276800
X401800Y266800
X416800Y266800
X416800Y276800
X456800Y276800
X466800Y276800
X466800Y266800
X456800Y266800
X466800Y256800
X456800Y251800
X456800Y241800
X466800Y241800
X506800Y256800
X506800Y266800
X506800Y276800
X416800Y251800
X416800Y241800
X376800Y241800
X376800Y231800
X376800Y211800
X386800Y211800
X396800Y211800
X366800Y211800
X356800Y211800
X346800Y211800
X336800Y211800
X376800Y251800
X436800Y211800
X451800Y211800
X466800Y201800
X466800Y186800
X451800Y171800
X436800Y171800
X426800Y166800
X426800Y156800
X426800Y146800
X426800Y136800
X466800Y146800
X486800Y91800
X526800Y91800
X531800Y76800
X266800Y181800
X266800Y191800
X266800Y201800
X266800Y211800
X266800Y221800
X266800Y231800
X266800Y241800
X261800Y256800
X261800Y266800
X251800Y276800
X241800Y276800
X231800Y276800
X221800Y276800
X201800Y271800
X191800Y271800
X196800Y251800
X176800Y251800
X176800Y241800
X176800Y231800
X176800Y221800
X176800Y211800
X176800Y201800
X176800Y191800
X196800Y191800
X206800Y191800
X216800Y191800
X226800Y191800
X186800Y176800
X187800Y166800
X196800Y156800
X211800Y156800
X211800Y166800
X196800Y146800
X196800Y136800
X151800Y136800
X141800Y136800
X131800Y136800
X121800Y136800
X111800Y136800
X101800Y136800
X91800Y136800
X71800Y126800
X61800Y126800
X51800Y126800
X41800Y126800
X31800Y126800
X91800Y106800
X101800Y106800
X111800Y106800
X121800Y106800
X131800Y106800
X141800Y106800
X151800Y106800
X171800Y106800
X181800Y106800
X191800Y106800
X201800Y106800
X211800Y106800
X261800Y121800
X261800Y146800
X261800Y156800
X251800Y156800
X251800Y166800
X261800Y166800
X226800Y231800
X216800Y231800
X206800Y231800
X196800Y231800
X236800Y251800
X301800Y256800
X301800Y266800
X251800Y306800
X241800Y306800
X231800Y306800
X221800Y306800
X201800Y311800
X191800Y311800
X96800Y311800
X86800Y311800
X76800Y311800
X56800Y311800
X46800Y311800
X36800Y311800
X26800Y311800
X26800Y281800
X36800Y281800
X46800Y281800
X56800Y281800
X76800Y271800
X86800Y271800
X96800Y271800
X96800Y251800
X96800Y241800
X96800Y231800
X96800Y221800
X96800Y211800
X96800Y201800
X96800Y191800
X86800Y186800
X86800Y176800
X96800Y176800
X96800Y166800
X86800Y166800
X96800Y156800
X136800Y156800
X136800Y166800
X147800Y166800
X146800Y176800
X136800Y176800
X126800Y191800
X126800Y201800
X126800Y211800
X126800Y221800
X126800Y231800
X126800Y241800
X126800Y251800
X146800Y251800
X146800Y241800
X146800Y231800
X146800Y221800
X146800Y211800
X146800Y201800
X146800Y191800
X76800Y211800
X66800Y211800
X46800Y201800
X36800Y201800
X26800Y201800
X46800Y186800
X46800Y176800
X36800Y171800
X26800Y171800
X16800Y171800
X46800Y166800
X46800Y241800
X36800Y241800
X26800Y241800
X66800Y251800
X76800Y251800
X71800Y86800
X61800Y86800
X51800Y86800
X41800Y86800
X31800Y86800
X21800Y76800
X41800Y56800
X51800Y56800
X61800Y56800
X71800Y56800
X91800Y56800
X101800Y56800
X111800Y56800
X121800Y56800
X131800Y56800
X141800Y56800
X151800Y56800
X171800Y56800
X181800Y56800
X191800Y56800
X201800Y56800
X201800Y66800
X191800Y66800
X181800Y66800
X171800Y66800
X211800Y66800
X211800Y46800
X211800Y36800
X201800Y16800
X191800Y16800
X181800Y16800
X171800Y16800
X151800Y26800
X141800Y26800
X131800Y26800
X121800Y26800
X111800Y26800
X101800Y26800
X91800Y26800
X71800Y16800
X61800Y16800
X51800Y16800
X41800Y16800
X61800Y76800
X251800Y46800
X251800Y36800
X261800Y81800
T05
X366800Y111800
X376800Y111800
X386800Y111800
X396800Y111800
X406800Y111800
X416800Y111800
X426800Y111800
X436800Y111800
X436800Y301800
X446800Y301800
X456800Y301800
X466800Y301800
X476800Y301800
X486800Y301800
X496800Y301800
X506800Y301800
X420800Y301800
X410800Y301800
X400800Y301800
X390800Y301800
X380800Y301800
X370800Y301800
X360800Y301800
X350800Y301800
X340800Y301800
X330800Y301800
T06
X331800Y129800
X341800Y129800
X351800Y129800
X321800Y129800
X311800Y129800
X301800Y129800
X286800Y131800
X276800Y131800
X276800Y121800
X286800Y121800
X286800Y111800
X276800Y111800
X276800Y101800
X286800Y101800
X286800Y91800
X276800Y91800
X276800Y81800
X286800Y81800
X301800Y111800
X311800Y111800
X321800Y111800
X331800Y111800
X341800Y111800
X351800Y111800
X456800Y111800
X466800Y111800
X476800Y111800
X486800Y111800
X496800Y111800
X506800Y111800
T07
X502863Y166800
X526485Y166800
X514674Y185304
X502863Y216800
X526485Y216800
X514674Y235304
M30
